# xmcd
#
# Track frame offsets: 
#        150
#        22458
#        43063
#        65576
#        83981
#        98880
#        113132
#        127376
#        142417
#        155282
#
# Disc length: 2208 seconds
#
# Revision: 0
# Processed by: cddbd v1.5.2PL0 Copyright (c) Steve Scherf et al.
# Submitted via: ExactAudioCopyFreeDBPlugin 1.0
#
DISCID=9b089e0a
DTITLE=Z.Z. Hill - The Brand New Z.Z. Hill
DYEAR=1971
DGENRE=Soul
TTITLE0=It Ain't No Use (Blues at the Opera:  Act I - Scene I)
TTITLE1=Ha Ha (Laughing Song) (Blues at the Opera:  Act I - Scene II)
TTITLE2=Second Chance (Blues at the Opera:  Act II - Scene I)
TTITLE3=Our Love is Getting Better (Blues at the Opera:  Act II - Scen
TTITLE3=e II)
TTITLE4=Faithful and True (Blues at the Opera:  Act III - Finale)
TTITLE5=The Chokin' Kind
TTITLE6=Hold Back (One Man at a Time)
TTITLE7=A Man Needs a Woman (A Woman Needs a Man)
TTITLE8=Early in the Morning
TTITLE9=I Think I'd Do It
EXTD=
EXTT0=
EXTT1=
EXTT2=
EXTT3=
EXTT4=
EXTT5=
EXTT6=
EXTT7=
EXTT8=
EXTT9=
PLAYORDER=
